<svg xmlns="http://www.w3.org/2000/svg" xmlns:xlink="http://www.w3.org/1999/xlink" width="375" viewBox="0 0 375 375" height="375" version="1.0"><defs><g id="a"><path d="M 52.148438 0 L 30.09375 -52.574219 L 22.410156 -52.574219 L 0.496094 0 L 11.242188 0 L 17.074219 -13.589844 L 35.785156 -13.589844 L 41.40625 0 Z M 31.871094 -22.910156 L 20.632812 -22.910156 L 26.253906 -38.84375 Z M 31.871094 -22.910156"/></g><g id="b"><path d="M 29.738281 -43.257812 L 29.738281 -52.574219 L 0.496094 -52.574219 L 0.496094 -43.257812 L 10.246094 -43.257812 L 10.246094 0 L 19.992188 0 L 19.992188 -43.257812 Z M 29.738281 -43.257812"/></g><g id="c"><path d="M 54.070312 -14.65625 L 42.617188 -14.65625 C 38.347656 -10.171875 34.648438 -8.464844 29.597656 -8.464844 C 19.921875 -8.464844 11.953125 -16.578125 11.953125 -26.394531 C 11.953125 -36.285156 19.351562 -44.109375 29.382812 -44.109375 C 35.5 -44.109375 39.628906 -42.117188 43.183594 -37.492188 L 54.070312 -37.492188 C 49.445312 -47.667969 39.984375 -53.5 29.167969 -53.5 C 14.300781 -53.5 2.132812 -41.335938 2.132812 -26.464844 C 2.132812 -11.3125 14.441406 0.925781 29.808594 0.925781 C 40.550781 0.925781 49.945312 -5.050781 54.070312 -14.65625 Z M 54.070312 -14.65625"/></g><clipPath id="d"><path d="M 209 148 L 261.75 148 L 261.75 223.195312 L 209 223.195312 Z M 209 148"/></clipPath><clipPath id="e"><path d="M 187.5 135.445312 L 215 135.445312 L 215 168 L 187.5 168 Z M 187.5 135.445312"/></clipPath></defs><g fill="#5E17EB"><use x="102.471" y="222.538" xmlns:xlink="http://www.w3.org/1999/xlink" xlink:href="#a" xlink:type="simple" xlink:actuate="onLoad" xlink:show="embed"/></g><g fill="#5E17EB"><use x="155.118" y="222.538" xmlns:xlink="http://www.w3.org/1999/xlink" xlink:href="#b" xlink:type="simple" xlink:actuate="onLoad" xlink:show="embed"/></g><g fill="#5E17EB"><use x="184.998" y="222.538" xmlns:xlink="http://www.w3.org/1999/xlink" xlink:href="#c" xlink:type="simple" xlink:actuate="onLoad" xlink:show="embed"/></g><g clip-path="url(#d)"><path fill="#5E17EB" d="M 224.363281 223.195312 C 245.121094 223.195312 261.984375 206.359375 261.984375 185.640625 C 261.984375 164.921875 245.121094 148.085938 224.363281 148.085938 C 220.210938 148.085938 212.425781 148.03125 212.375 148.03125 L 212.0625 152.332031 C 212.375 152.332031 220.105469 152.382812 224.363281 152.382812 C 242.734375 152.382812 257.730469 167.304688 257.730469 185.691406 C 257.730469 204.03125 242.785156 219 224.363281 219 C 219.535156 219 209.3125 218.894531 209.210938 218.894531 L 209.210938 223.246094 C 209.261719 223.195312 219.484375 223.195312 224.363281 223.195312 Z M 224.363281 223.195312"/></g><g clip-path="url(#e)"><path fill="#5E17EB" d="M 195.613281 150.519531 L 210.195312 159.429688 L 210.195312 142.59375 Z M 187.050781 150.261719 L 214.449219 135.445312 L 214.449219 167.042969 Z M 187.050781 150.261719"/></g></svg>